HIERARCHY
ROOT Hips
{
	OFFSET -3.958830 18.904000 13.208200
	CHANNELS 6 Xposition Yposition Zposition Zrotation Yrotation Xrotation 
	JOINT LHipJoint
	{
		OFFSET 0.000000 0.000000 0.000000
		CHANNELS 3 Zrotation Yrotation Xrotation
		JOINT LeftUpLeg
		{
			OFFSET 1.800000 -1.400000 0.085000
			CHANNELS 3 Zrotation Yrotation Xrotation
			JOINT LeftLeg
			{
				OFFSET 2.215000 -6.000000 0.000000
				CHANNELS 3 Zrotation Yrotation Xrotation
				JOINT LeftFoot
				{
					OFFSET 2.500000 -6.900000 0.000000
					CHANNELS 3 Zrotation Yrotation Xrotation
					JOINT LeftToeBase
					{
						OFFSET 0.200000 -0.500000 1.950000
						CHANNELS 3 Zrotation Yrotation Xrotation
						End Site
						{
							OFFSET 0.000000 0.000000 0.000000
						}
					}
				}
			}
		}
	}
	JOINT RHipJoint
	{
		OFFSET 0.000000 0.000000 0.000000
		CHANNELS 3 Zrotation Yrotation Xrotation
		JOINT RightUpLeg
		{
			OFFSET -1.800000 -1.400000 0.085000
			CHANNELS 3 Zrotation Yrotation Xrotation
			JOINT RightLeg
			{
				OFFSET -2.215000 -6.000000 0.000000
				CHANNELS 3 Zrotation Yrotation Xrotation
				JOINT RightFoot
				{
					OFFSET -2.500000 -6.900000 0.000000
					CHANNELS 3 Zrotation Yrotation Xrotation
					JOINT RightToeBase
					{
						OFFSET -0.200000 -0.500000 1.950000
						CHANNELS 3 Zrotation Yrotation Xrotation
						End Site
						{
							OFFSET 0.000000 0.000000 0.000000
						}
					}
				}
			}
		}
	}
	JOINT LowerBack
	{
		OFFSET 0.000000 0.000000 0.000000
		CHANNELS 3 Zrotation Yrotation Xrotation
		JOINT Spine
		{
			OFFSET -0.087000 1.940000 -0.288900
			CHANNELS 3 Zrotation Yrotation Xrotation
			JOINT Spine1
			{
				OFFSET 0.000000 1.950000 0.060000
				CHANNELS 3 Zrotation Yrotation Xrotation
				JOINT Neck
				{
					OFFSET 0.000000 0.000000 0.000000
					CHANNELS 3 Zrotation Yrotation Xrotation
					JOINT Neck1
					{
						OFFSET 0.000000 1.600000 0.340000
						CHANNELS 3 Zrotation Yrotation Xrotation
						JOINT Head
						{
							OFFSET 0.000000 1.667000 -0.240000
							CHANNELS 3 Zrotation Yrotation Xrotation
							End Site
							{
								OFFSET 0.000000 0.000000 0.000000
							}
						}
					}
				}
				JOINT LeftShoulder
				{
					OFFSET 0.000000 0.000000 0.000000
					CHANNELS 3 Zrotation Yrotation Xrotation
					JOINT LeftArm
					{
						OFFSET 2.700000 1.550000 -0.730000
						CHANNELS 3 Zrotation Yrotation Xrotation
						JOINT LeftForeArm
						{
							OFFSET 5.450000 0.000000 0.000000
							CHANNELS 3 Zrotation Yrotation Xrotation
							JOINT LeftHand
							{
								OFFSET 3.450000 0.000000 0.000000
								CHANNELS 3 Zrotation Yrotation Xrotation
								JOINT LeftHandIndex1
								{
									OFFSET 0.750000 0.000000 0.000000
									CHANNELS 3 Zrotation Yrotation Xrotation
									End Site
									{
										OFFSET 0.000000 0.000000 0.000000
									}
								}
							}
						}
					}
				}
				JOINT RightShoulder
				{
					OFFSET 0.000000 0.000000 0.000000
					CHANNELS 3 Zrotation Yrotation Xrotation
					JOINT RightArm
					{
						OFFSET -2.700000 1.550000 -0.730000
						CHANNELS 3 Zrotation Yrotation Xrotation
						JOINT RightForeArm
						{
							OFFSET -5.450000 0.000000 0.000000
							CHANNELS 3 Zrotation Yrotation Xrotation
							JOINT RightHand
							{
								OFFSET -3.450000 0.000000 0.000000
								CHANNELS 3 Zrotation Yrotation Xrotation
								JOINT RightHandIndex1
								{
									OFFSET -0.750000 0.000000 0.000000
									CHANNELS 3 Zrotation Yrotation Xrotation
									End Site
									{
										OFFSET 0.000000 0.000000 0.000000
									}
								}
							}
						}
					}
				}
			}
		}
	}
}
MOTION
Frames: 13
Frame Time: 0.016667
1.041620 17.623070 -0.263440 -1.021301 10.763101 -0.358622 -15.175828 13.813301 2.770480 6.399590 -1.361603 -14.325368 -5.550553 5.607386 13.159085 -0.840942 4.276051 3.127709 -0.248740 -0.417450 -0.124470 18.198539 -10.998712 2.191696 -9.718151 0.230680 -9.281796 4.283375 -5.277734 14.793654 0.102890 -3.891828 3.061492 0.048930 0.633810 0.046320 -3.686667 -2.767835 -6.677212 9.670505 -0.678858 6.664817 -1.582404 -0.062390 9.125767 -0.535250 -7.550059 -8.027913 -17.974083 18.231285 35.052220 -7.028970 17.027420 0.486990 -13.822542 -1.294233 0.918695 -8.181169 -2.503252 -1.992791 25.295497 -30.274844 -5.609687 -4.247927 2.771249 0.279680 0.481370 -0.376700 -0.043390 14.498102 5.456191 4.963922 13.098565 -3.576955 -6.209244 -24.733817 27.020115 -4.431156 2.029532 -1.368334 -0.615380 0.371120 0.425510 -0.225270 
1.043630 17.623090 -0.262210 -1.036790 10.693240 -0.385618 -15.180349 13.823890 2.772033 6.405644 -1.358655 -14.331974 -5.535041 5.620844 13.245538 -0.835051 4.277065 3.125283 -0.248750 -0.416980 -0.123060 18.191835 -10.996304 2.193657 -9.739300 0.227846 -9.273810 4.317570 -5.288491 14.802695 0.101111 -3.891041 3.061222 0.045810 0.628400 0.046930 -3.669324 -2.788646 -6.684598 9.567914 -0.650570 6.712288 -1.397878 -0.077007 9.159933 -0.547285 -7.491150 -8.065565 -17.899903 18.146096 35.257140 -7.103340 17.045970 0.500060 -13.703882 -1.390564 0.938468 -7.708637 -2.461496 -1.931207 24.867722 -30.565547 -5.512447 -4.240784 2.778270 0.280340 0.478320 -0.372940 -0.044270 14.423302 5.530744 5.003109 13.003934 -3.522322 -6.171702 -24.578807 26.944865 -4.378133 2.033439 -1.366243 -0.611560 0.366930 0.423470 -0.225180 
1.045280 17.622900 -0.260770 -1.035578 10.611553 -0.403741 -15.186065 13.835443 2.773415 6.385656 -1.358067 -14.341832 -5.496083 5.627195 13.335860 -0.829474 4.274905 3.124002 -0.247860 -0.415390 -0.120500 18.184051 -10.993878 2.194845 -9.769291 0.226439 -9.273445 4.339897 -5.295208 14.813654 0.099510 -3.889201 3.060440 0.043260 0.622930 0.047980 -3.648364 -2.811489 -6.690202 9.423981 -0.614953 6.747238 -1.199331 -0.088188 9.203970 -0.567134 -7.434662 -8.098831 -17.826352 18.064101 35.441015 -7.167090 17.055830 0.497730 -13.577153 -1.480487 0.957604 -7.222542 -2.405259 -1.864785 24.388589 -30.856951 -5.400217 -4.233644 2.786287 0.280630 0.475260 -0.368890 -0.045470 14.357709 5.605890 5.039873 12.898757 -3.467798 -6.131911 -24.409378 26.883935 -4.325777 2.037691 -1.364603 -0.607210 0.362510 0.420860 -0.224790 
1.046680 17.622300 -0.259220 -1.031808 10.525244 -0.407761 -15.192452 13.846960 2.774464 6.361656 -1.361452 -14.374694 -5.451911 5.635346 13.449736 -0.823762 4.274415 3.123232 -0.247480 -0.414090 -0.119000 18.175893 -10.991127 2.195246 -9.794868 0.228029 -9.291422 4.353192 -5.298863 14.833990 0.098988 -3.886874 3.060700 0.041120 0.619990 0.049190 -3.625604 -2.835038 -6.693528 9.259447 -0.575882 6.762692 -0.980595 -0.101377 9.252403 -0.597918 -7.378614 -8.121797 -17.740137 17.979672 35.580155 -7.216550 17.060440 0.520760 -13.431362 -1.555667 0.975143 -6.737889 -2.345202 -1.786554 23.810678 -31.162850 -5.262716 -4.227964 2.795311 0.279390 0.473970 -0.366010 -0.045400 14.295783 5.669220 5.067109 12.771472 -3.404060 -6.085106 -24.236333 26.829529 -4.274481 2.041360 -1.363672 -0.603480 0.359370 0.418230 -0.223530 
1.048210 17.621530 -0.257410 -1.032576 10.431901 -0.401203 -15.198627 13.857146 2.775343 6.343501 -1.367475 -14.428219 -5.413092 5.647304 13.579052 -0.817407 4.275568 3.122497 -0.248780 -0.414440 -0.119710 18.168077 -10.988261 2.196102 -9.816088 0.231611 -9.319659 4.380216 -5.305621 14.855851 0.099397 -3.885657 3.061434 0.038320 0.618820 0.050220 -3.603386 -2.856049 -6.696391 9.095719 -0.533609 6.762549 -0.762412 -0.112838 9.299938 -0.624794 -7.316267 -8.146130 -17.626883 17.885110 35.698269 -7.258130 17.063700 0.591380 -13.270273 -1.628481 0.997566 -6.265696 -2.256751 -1.705290 23.177296 -31.502426 -5.113043 -4.223161 2.805605 0.276950 0.473960 -0.364560 -0.044730 14.212662 5.727042 5.095088 12.646788 -3.331829 -6.027856 -24.004058 26.755539 -4.207575 2.044757 -1.362604 -0.600300 0.356460 0.416350 -0.221770 
1.049910 17.620720 -0.255560 -1.040509 10.333230 -0.388907 -15.204621 13.866716 2.776881 6.337238 -1.375334 -14.495267 -5.391978 5.666222 13.718966 -0.810502 4.280509 3.120817 -0.252280 -0.418080 -0.122270 18.160376 -10.984952 2.197254 -9.833947 0.236556 -9.353286 4.411965 -5.313963 14.875138 0.100931 -3.884927 3.062653 0.033600 0.619490 0.051600 -3.581441 -2.876682 -6.700065 8.941080 -0.489437 6.756031 -0.538571 -0.123520 9.342084 -0.646146 -7.252641 -8.182158 -17.510992 17.781850 35.818332 -7.292770 17.063130 0.720970 -13.092203 -1.708207 1.031137 -5.824397 -2.144717 -1.621816 22.485145 -31.882697 -4.953370 -4.218885 2.816826 0.274440 0.474910 -0.364480 -0.044100 14.104525 5.791470 5.131646 12.526836 -3.263294 -5.966692 -23.733985 26.671507 -4.129336 2.048191 -1.360902 -0.597880 0.353250 0.415800 -0.219740 
1.051660 17.620240 -0.253790 -1.050774 10.229452 -0.376291 -15.210176 13.876108 2.778690 6.333922 -1.382533 -14.560011 -5.373549 5.684617 13.849559 -0.803428 4.285432 3.119665 -0.256240 -0.422420 -0.125860 18.153070 -10.981668 2.198714 -9.846036 0.241134 -9.385046 4.438017 -5.319531 14.887891 0.102529 -3.882648 3.065089 0.028530 0.620790 0.052280 -3.560619 -2.896963 -6.704402 8.797753 -0.445837 6.750862 -0.313467 -0.134064 9.382523 -0.669214 -7.198112 -8.232619 -17.424338 17.683669 35.950258 -7.289570 17.035170 0.864730 -12.910129 -1.802407 1.075620 -5.394156 -1.998001 -1.535323 21.692730 -32.313532 -4.774009 -4.213555 2.828207 0.272600 0.475350 -0.364610 -0.043110 13.997125 5.876083 5.181335 12.413307 -3.218275 -5.912277 -23.480965 26.589533 -4.054207 2.051395 -1.358170 -0.595970 0.351190 0.415650 -0.217450 
1.053210 17.620160 -0.252050 -1.058675 10.112294 -0.362870 -15.215976 13.885846 2.781454 6.330936 -1.386998 -14.611052 -5.366918 5.703228 13.958418 -0.797324 4.291260 3.118549 -0.260900 -0.427820 -0.130670 18.145425 -10.978096 2.199887 -9.855929 0.246880 -9.422016 4.456571 -5.323642 14.904422 0.104297 -3.879291 3.068415 0.023210 0.622780 0.052490 -3.538668 -2.918484 -6.709594 8.648380 -0.399710 6.748446 -0.081494 -0.142085 9.421772 -0.690080 -7.148761 -8.295787 -17.355990 17.598240 36.096595 -7.270670 17.003450 1.011270 -12.726594 -1.908681 1.130736 -4.976503 -1.805365 -1.447825 20.829239 -32.813168 -4.584141 -4.207174 2.839584 0.272380 0.475470 -0.364740 -0.041590 13.886562 5.978065 5.241179 12.299455 -3.182516 -5.861002 -23.216956 26.503306 -3.975164 2.053989 -1.354053 -0.595400 0.350220 0.416140 -0.215240 
1.054800 17.620120 -0.250420 -1.067380 9.987738 -0.346675 -15.221663 13.895179 2.785208 6.330833 -1.389463 -14.651805 -5.375676 5.722196 14.041195 -0.791788 4.297320 3.117195 -0.265360 -0.433340 -0.135300 18.137989 -10.974543 2.200469 -9.855241 0.254077 -9.463761 4.454203 -5.322280 14.926721 0.106179 -3.873963 3.072407 0.017920 0.624460 0.052600 -3.516971 -2.939798 -6.715139 8.503406 -0.354535 6.748940 0.150695 -0.150679 9.458584 -0.711758 -7.105146 -8.361868 -17.299913 17.519355 36.235616 -7.247970 16.967300 1.141280 -12.549766 -2.020865 1.187773 -4.543495 -1.577813 -1.354050 19.861686 -33.363310 -4.369772 -4.200445 2.852416 0.272910 0.475220 -0.364850 -0.040390 13.784450 6.088972 5.305135 12.177895 -3.156082 -5.811845 -22.965523 26.416256 -3.898105 2.056158 -1.349583 -0.595010 0.349440 0.417040 -0.213490 
1.056380 17.620410 -0.249010 -1.071905 9.858681 -0.337507 -15.227708 13.905081 2.789919 6.331416 -1.388628 -14.673199 -5.396633 5.740841 14.098759 -0.787320 4.303177 3.115302 -0.268660 -0.437650 -0.138820 18.130015 -10.970493 2.200869 -9.861122 0.260789 -9.501647 4.456303 -5.323013 14.952866 0.107300 -3.868231 3.076105 0.013280 0.625040 0.052390 -3.493931 -2.963354 -6.722094 8.352557 -0.307870 6.767396 0.391627 -0.156192 9.490697 -0.735927 -7.069923 -8.429999 -17.272472 17.450239 36.389337 -7.214880 16.916870 1.221430 -12.388486 -2.135238 1.243277 -4.122191 -1.341563 -1.259161 18.842920 -33.939828 -4.142995 -4.192632 2.865246 0.275100 0.473630 -0.363840 -0.039520 13.702895 6.209001 5.372342 12.031485 -3.137940 -5.762900 -22.729737 26.311549 -3.821215 2.058608 -1.344000 -0.594740 0.349390 0.417870 -0.212100 
1.058160 17.620750 -0.247520 -1.072681 9.731211 -0.325454 -15.233870 13.914694 2.794356 6.320377 -1.387244 -14.684486 -5.407789 5.753824 14.138859 -0.784035 4.306044 3.113884 -0.271780 -0.441920 -0.141410 18.122036 -10.966018 2.201306 -9.881041 0.266711 -9.539189 4.476206 -5.328444 14.974612 0.108207 -3.862714 3.079322 0.008830 0.623860 0.051190 -3.470785 -2.987083 -6.728588 8.200292 -0.264956 6.778112 0.628063 -0.165576 9.531730 -0.756394 -7.037247 -8.502554 -17.254470 17.385812 36.554217 -7.200480 16.875820 1.273790 -12.231079 -2.256622 1.302182 -3.702898 -1.084509 -1.161579 17.752541 -34.534614 -3.894127 -4.184346 2.878777 0.278090 0.471010 -0.362670 -0.039850 13.618274 6.336092 5.443789 11.906016 -3.120590 -5.721764 -22.531286 26.194407 -3.751466 2.060865 -1.337774 -0.594730 0.349310 0.419080 -0.211980 
1.060050 17.621130 -0.245910 -1.070889 9.598902 -0.308791 -15.240713 13.923696 2.799152 6.311305 -1.385620 -14.688930 -5.429007 5.766133 14.158968 -0.781804 4.309006 3.111881 -0.273470 -0.445800 -0.141420 18.113629 -10.960213 2.201536 -9.907622 0.273389 -9.578257 4.504696 -5.335141 14.988035 0.108623 -3.857047 3.081598 0.004720 0.620900 0.050720 -3.445797 -3.012178 -6.734721 8.038475 -0.221993 6.781786 0.878376 -0.177681 9.580612 -0.775383 -7.008306 -8.570156 -17.242311 17.313356 36.706914 -7.229720 16.841590 1.289240 -12.085047 -2.373678 1.358792 -3.298869 -0.819952 -1.060265 16.586848 -35.145928 -3.622622 -4.175860 2.894297 0.282090 0.467770 -0.360730 -0.040840 13.542715 6.462790 5.513338 11.761061 -3.101656 -5.678816 -22.333731 26.074617 -3.681772 2.063168 -1.332222 -0.594490 0.348120 0.419700 -0.213090 
1.061930 17.621330 -0.243940 -1.067657 9.466353 -0.278574 -15.248235 13.931498 2.803926 6.303154 -1.384575 -14.696090 -5.456641 5.777400 14.162510 -0.778220 4.310438 3.110428 -0.274810 -0.449270 -0.140680 18.105017 -10.953480 2.201377 -9.931293 0.280049 -9.620009 4.524610 -5.336639 14.985837 0.109270 -3.849886 3.084115 0.000360 0.617600 0.050840 -3.419291 -3.036919 -6.739285 7.860456 -0.178233 6.756652 1.139792 -0.194869 9.642947 -0.792222 -6.973293 -8.639269 -17.208292 17.241843 36.848653 -7.258000 16.822060 1.320020 -11.933683 -2.495751 1.423259 -2.907990 -0.534214 -0.955827 15.337303 -35.783303 -3.323600 -4.167418 2.912782 0.285060 0.464700 -0.358650 -0.041920 13.460477 6.590506 5.583997 11.625735 -3.079986 -5.633935 -22.127599 25.946952 -3.611182 2.066419 -1.327545 -0.593250 0.345660 0.419540 -0.213860 
